<svg width="31" height="31" viewBox="0 0 31 31" fill="none" xmlns="http://www.w3.org/2000/svg">
<path fill-rule="evenodd" clip-rule="evenodd" d="M23.4857 13.1237C23.4857 14.4164 23.2307 15.6965 22.7353 16.8907C22.24 18.085 21.5139 19.1702 20.5985 20.0843C19.6832 20.9984 18.5965 21.7235 17.4005 22.2181C16.2046 22.7128 14.9228 22.9675 13.6283 22.9675C12.3338 22.9675 11.0519 22.7128 9.85599 22.2181C8.66003 21.7235 7.57336 20.9984 6.65801 20.0843C5.74267 19.1702 5.01657 18.085 4.52119 16.8907C4.02581 15.6965 3.77084 14.4164 3.77084 13.1237C3.77084 10.513 4.80939 8.00919 6.65801 6.16313C8.50664 4.31706 11.0139 3.27996 13.6283 3.27996C16.2426 3.27996 18.7499 4.31706 20.5985 6.16313C22.4471 8.00919 23.4857 10.513 23.4857 13.1237ZM21.6894 23.4925C19.0485 25.5399 15.7254 26.5053 12.3967 26.1921C9.06807 25.879 5.98404 24.3108 3.77248 21.8068C1.56093 19.3028 0.388104 16.0512 0.492777 12.7141C0.59745 9.37696 1.97175 6.2051 4.3359 3.84423C6.70005 1.48336 9.87631 0.110968 13.2181 0.00643994C16.5599 -0.0980878 19.8159 1.07311 22.3234 3.2816C24.8309 5.49009 26.4012 8.56984 26.7148 11.8939C27.0285 15.2179 26.0617 18.5364 24.0114 21.1737L30.123 27.2768C30.2844 27.427 30.4139 27.6082 30.5037 27.8094C30.5935 28.0107 30.6418 28.2279 30.6457 28.4482C30.6496 28.6685 30.609 28.8873 30.5263 29.0916C30.4437 29.2959 30.3207 29.4814 30.1647 29.6372C30.0087 29.793 29.8229 29.9158 29.6183 29.9984C29.4137 30.0809 29.1946 30.1214 28.974 30.1175C28.7534 30.1136 28.5359 30.0654 28.3344 29.9757C28.1328 29.8861 27.9515 29.7568 27.801 29.5956L21.6894 23.4925Z" fill="#201F1E"/>
</svg>
