<svg width="52" height="53" viewBox="0 0 52 53" fill="none" xmlns="http://www.w3.org/2000/svg">
<path d="M0 6.00357C0 2.68789 2.67318 0 5.97072 0H46.0293C49.3268 0 52 2.68789 52 6.00357V33.4778C52 36.7935 49.3268 39.4814 46.0293 39.4814H5.97072C2.67318 39.4814 0 36.7935 0 33.4778V6.00357Z" fill="#FFC107"/>
<path d="M31.7491 51.3148C28.2865 53.5617 23.8362 53.5617 20.3736 51.3148L4.94139 41.3004C0.823186 38.628 -0.905364 33.4441 0.778375 28.8157L6.13742 14.0843C7.65011 9.92603 11.5847 7.16051 15.9882 7.16052L36.1345 7.16052C40.538 7.16052 44.4726 9.92603 45.9853 14.0843L51.3444 28.8157C53.0281 33.4441 51.2995 38.628 47.1813 41.3004L31.7491 51.3148Z" fill="#FFC107"/>
<path d="M12.3883 5.624V10.808C12.3883 11.376 12.5363 11.812 12.8323 12.116C13.1283 12.412 13.5443 12.56 14.0803 12.56C14.6243 12.56 15.0443 12.412 15.3403 12.116C15.6363 11.812 15.7843 11.376 15.7843 10.808V5.624H17.4763V10.796C17.4763 11.508 17.3203 12.112 17.0083 12.608C16.7043 13.096 16.2923 13.464 15.7723 13.712C15.2603 13.96 14.6883 14.084 14.0563 14.084C13.4323 14.084 12.8643 13.96 12.3523 13.712C11.8483 13.464 11.4483 13.096 11.1523 12.608C10.8563 12.112 10.7083 11.508 10.7083 10.796V5.624H12.3883ZM31.0909 5.624V14H29.4109V8.552L27.1669 14H25.8949L23.6389 8.552V14H21.9589V5.624H23.8669L26.5309 11.852L29.1949 5.624H31.0909ZM38.5032 14.084C37.9192 14.084 37.3912 13.984 36.9192 13.784C36.4552 13.584 36.0872 13.296 35.8152 12.92C35.5432 12.544 35.4032 12.1 35.3952 11.588H37.1952C37.2192 11.932 37.3392 12.204 37.5552 12.404C37.7792 12.604 38.0832 12.704 38.4672 12.704C38.8592 12.704 39.1672 12.612 39.3912 12.428C39.6152 12.236 39.7272 11.988 39.7272 11.684C39.7272 11.436 39.6512 11.232 39.4992 11.072C39.3472 10.912 39.1552 10.788 38.9232 10.7C38.6992 10.604 38.3872 10.5 37.9872 10.388C37.4432 10.228 36.9992 10.072 36.6552 9.92C36.3192 9.76 36.0272 9.524 35.7792 9.212C35.5392 8.892 35.4192 8.468 35.4192 7.94C35.4192 7.444 35.5432 7.012 35.7912 6.644C36.0392 6.276 36.3872 5.996 36.8352 5.804C37.2832 5.604 37.7952 5.504 38.3712 5.504C39.2352 5.504 39.9352 5.716 40.4712 6.14C41.0152 6.556 41.3152 7.14 41.3712 7.892H39.5232C39.5072 7.604 39.3832 7.368 39.1512 7.184C38.9272 6.992 38.6272 6.896 38.2512 6.896C37.9232 6.896 37.6592 6.98 37.4592 7.148C37.2672 7.316 37.1712 7.56 37.1712 7.88C37.1712 8.104 37.2432 8.292 37.3872 8.444C37.5392 8.588 37.7232 8.708 37.9392 8.804C38.1632 8.892 38.4752 8.996 38.8752 9.116C39.4192 9.276 39.8632 9.436 40.2072 9.596C40.5512 9.756 40.8472 9.996 41.0952 10.316C41.3432 10.636 41.4672 11.056 41.4672 11.576C41.4672 12.024 41.3512 12.44 41.1192 12.824C40.8872 13.208 40.5472 13.516 40.0992 13.748C39.6512 13.972 39.1192 14.084 38.5032 14.084ZM15.138 32L12.09 28.268V32H10.41V23.624H12.09V27.38L15.138 23.624H17.166L13.71 27.776L17.262 32H15.138ZM22.8824 23.624V28.808C22.8824 29.376 23.0304 29.812 23.3264 30.116C23.6224 30.412 24.0384 30.56 24.5744 30.56C25.1184 30.56 25.5384 30.412 25.8344 30.116C26.1304 29.812 26.2784 29.376 26.2784 28.808V23.624H27.9704V28.796C27.9704 29.508 27.8144 30.112 27.5024 30.608C27.1984 31.096 26.7864 31.464 26.2664 31.712C25.7544 31.96 25.1824 32.084 24.5504 32.084C23.9264 32.084 23.3584 31.96 22.8464 31.712C22.3424 31.464 21.9424 31.096 21.6464 30.608C21.3504 30.112 21.2024 29.508 21.2024 28.796V23.624H22.8824ZM41.585 23.624V32H39.905V26.552L37.661 32H36.389L34.133 26.552V32H32.453V23.624H34.361L37.025 29.852L39.689 23.624H41.585Z" fill="white"/>
</svg>
