<svg width="55" height="55" viewBox="0 0 55 55" fill="none" xmlns="http://www.w3.org/2000/svg">
<path fill-rule="evenodd" clip-rule="evenodd" d="M27.4623 31.5811C30.3756 31.5811 33.1696 30.4237 35.2297 28.3637C37.2897 26.3037 38.447 23.5097 38.447 20.5963C38.447 17.683 37.2897 14.889 35.2297 12.8289C33.1696 10.7689 30.3756 9.61157 27.4623 9.61157C24.5489 9.61157 21.7549 10.7689 19.6949 12.8289C17.6349 14.889 16.4775 17.683 16.4775 20.5963C16.4775 23.5097 17.6349 26.3037 19.6949 28.3637C21.7549 30.4237 24.5489 31.5811 27.4623 31.5811ZM27.4623 28.8349C28.5442 28.8349 29.6155 28.6218 30.615 28.2078C31.6146 27.7937 32.5228 27.1869 33.2878 26.4219C34.0528 25.6568 34.6597 24.7486 35.0737 23.7491C35.4877 22.7495 35.7008 21.6782 35.7008 20.5963C35.7008 19.5144 35.4877 18.4431 35.0737 17.4436C34.6597 16.444 34.0528 15.5358 33.2878 14.7708C32.5228 14.0058 31.6146 13.3989 30.615 12.9849C29.6155 12.5709 28.5442 12.3578 27.4623 12.3578C25.2773 12.3578 23.1818 13.2257 21.6367 14.7708C20.0917 16.3158 19.2237 18.4113 19.2237 20.5963C19.2237 22.7813 20.0917 24.8768 21.6367 26.4219C23.1818 27.9669 25.2773 28.8349 27.4623 28.8349Z" fill="white"/>
<path fill-rule="evenodd" clip-rule="evenodd" d="M54.9237 27.4619C54.9237 42.629 42.629 54.9237 27.4619 54.9237C12.2947 54.9237 0 42.629 0 27.4619C0 12.2947 12.2947 0 27.4619 0C42.629 0 54.9237 12.2947 54.9237 27.4619ZM40.6847 48.3466C36.7316 50.856 32.1443 52.1851 27.4619 52.1775C22.6677 52.185 17.9758 50.7914 13.963 48.1681C13.6334 47.7562 13.2984 47.3305 12.9606 46.8911C12.5682 46.3763 12.3563 45.7466 12.3578 45.0992C12.3578 43.6204 13.4206 42.3805 14.8418 42.1732C24.2406 40.8001 30.712 40.9182 40.1231 42.2212C40.8047 42.32 41.4275 42.6621 41.8765 43.1843C42.3255 43.7065 42.5704 44.3735 42.5659 45.0622C42.5659 45.7212 42.3393 46.3611 41.9301 46.8609C41.5086 47.3744 41.0926 47.8701 40.6847 48.3466ZM45.2915 44.5788C45.0718 42.0084 43.1206 39.8636 40.4994 39.5011C30.8658 38.1679 24.1321 38.0402 14.4449 39.4558C11.8086 39.8403 9.86567 42.0043 9.63499 44.5816C5.20721 39.9832 2.73746 33.8455 2.74619 27.4619C2.74619 13.8119 13.8119 2.74619 27.4619 2.74619C41.1118 2.74619 52.1775 13.8119 52.1775 27.4619C52.1863 33.8441 49.7176 39.9807 45.2915 44.5788Z" fill="white"/>
</svg>
